<svg xmlns="http://www.w3.org/2000/svg" xmlns:xlink="http://www.w3.org/1999/xlink" viewBox="0,0,255.98959,255.98959" width="50px" height="50px"><g fill="#aa8453" fill-rule="nonzero" stroke="none" stroke-width="1" stroke-linecap="butt" stroke-linejoin="miter" stroke-miterlimit="10" stroke-dasharray="" stroke-dashoffset="0" font-family="none" font-weight="none" font-size="none" text-anchor="none" style="mix-blend-mode: normal"><g transform="scale(4,4)"><path d="M41.57227,2.01367c-1.66992,0.04883 -3.31055,0.36133 -4.87305,0.98633c-1.7,0.6 -3.69844,0.6 -5.39844,0c-1.9,-0.7 -4.00156,-1.00039 -6.10156,-0.90039h-0.19922h-10.19922h-0.20117c-6.3,1.1 -11.50039,6.40117 -12.40039,12.70117c-0.8,5.5 1.40078,10.89922 5.80078,14.19922v32c0,0.6 0.4,1 1,1h48c0.4,0 0.70039,-0.19961 0.90039,-0.59961l2,-4c0.2,-0.3 0.1,-0.7 0,-1c-0.2,-0.2 -0.60039,-0.40039 -0.90039,-0.40039h-6.5c0.6,-0.6 1.19922,-1.3 1.69922,-2h0.80078c2.8,0 5,-2.2 5,-5c0,-2.4 -1.7,-4.40039 -4,-4.90039v-0.09961c0,-0.6 -0.4,-1 -1,-1h-20c-0.6,0 -1,0.4 -1,1v4c0,3.1 1.3,6 3.5,8h-6.5c-0.3,0 -0.70039,0.2 -0.90039,0.5c-0.2,0.3 -0.2,0.7 0,1l1.30078,2.59961h-12.40039v-31.59961c0,-0.3 -0.20039,-0.60078 -0.40039,-0.80078c-4.1,-2.8 -6.10039,-7.69961 -5.40039,-12.59961c0.8,-5.5 5.20156,-10.00039 10.60156,-10.90039c2.3,-0.4 4.59883,-0.19844 6.79883,0.60156c2.2,0.8 4.70039,0.8 6.90039,0c2.2,-0.8 4.40078,-1.00156 6.80078,-0.60156c5.5,0.9 9.79961,5.40039 10.59961,10.90039c0.7,4.9 -1.40039,9.79961 -5.40039,12.59961c-0.3,0.2 -0.40039,0.50078 -0.40039,0.80078v2.5c0,0.6 0.4,1 1,1c0.6,0 1,-0.4 1,-1v-2c4.4,-3.3 6.60078,-8.69922 5.80078,-14.19922c-0.9,-6.3 -6.00078,-11.50156 -12.30078,-12.60156c-1.0125,-0.15 -2.02539,-0.21484 -3.02734,-0.18555zM14.80078,4.09961h3.5c-3.8,2.3 -6.60078,6.20117 -7.30078,10.70117c-0.6,5.5 1.6,10.89922 6,14.19922v31h-7v-31.5c0,-0.3 -0.20039,-0.60078 -0.40039,-0.80078c-4.1,-2.9 -6.2,-7.69961 -5.5,-12.59961c0.8,-5.4 5.30117,-10 10.70117,-11zM22.69922,7.15039c-0.25,0.025 -0.49922,0.14961 -0.69922,0.34961c-0.4,0.4 -0.30039,1.00039 0.09961,1.40039l2.5,2.19922l-2.59961,2.59961l-1.30078,-1.09961c-0.4,-0.4 -0.99844,-0.30039 -1.39844,0.09961c-0.4,0.4 -0.30039,1.00039 0.09961,1.40039l1.19922,1.09961l-2.09961,2.10156c-0.4,0.4 -0.4,0.99844 0,1.39844c0.2,0.2 0.49922,0.30078 0.69922,0.30078c0.2,0 0.50117,-0.10078 0.70117,-0.30078l2.19922,-2.19922l2.70117,2.40039l-1.40039,1.40039c-0.4,0.4 -0.4,0.99844 0,1.39844c0.2,0.2 0.49922,0.30078 0.69922,0.30078c0.2,0 0.50117,-0.10078 0.70117,-0.30078l1.39844,-1.39844l2.60156,2.29883c0.2,0.2 0.39922,0.30078 0.69922,0.30078c0.3,0 0.49922,-0.10078 0.69922,-0.30078c0.4,-0.4 0.30039,-1.00039 -0.09961,-1.40039l-2.5,-2.19922l2.59961,-2.59961l1.30078,1.09961c0.2,0.2 0.39922,0.30078 0.69922,0.30078c0.3,0 0.50117,-0.10078 0.70117,-0.30078c0.4,-0.4 0.30039,-1.00039 -0.09961,-1.40039l-1.20117,-1.09961l2.09961,-2.09961c0.4,-0.6 0.4,-1.19961 0,-1.59961c-0.4,-0.4 -0.99844,-0.4 -1.39844,0l-2.20117,2.19922l-2.69922,-2.40039l1.40039,-1.40039c0.4,-0.4 0.4,-0.99844 0,-1.39844c-0.4,-0.4 -1.00039,-0.4 -1.40039,0l-1.40039,1.39844l-2.59961,-2.29883c-0.2,-0.2 -0.45117,-0.275 -0.70117,-0.25zM26,12.5l2.69922,2.40039l-2.59961,2.59961l-2.69922,-2.40039zM43.59961,22c-0.25,0 -0.49922,0.10078 -0.69922,0.30078c-0.4,0.4 -0.4,0.99844 0,1.39844l1.09961,1.10156c0.3,0.3 0.19922,0.59922 0.19922,0.69922c0,0.1 -0.1,0.39961 -0.5,0.59961c-0.9,0.3 -1.49922,1.1 -1.69922,2c-0.2,0.9 0.10078,1.9 0.80078,2.5l1.09961,1.09961c0.2,0.2 0.49922,0.30078 0.69922,0.30078c0.2,0 0.50117,-0.10078 0.70117,-0.30078c0.4,-0.4 0.4,-0.99844 0,-1.39844l-1.10156,-1.10156c-0.2,-0.3 -0.19922,-0.59922 -0.19922,-0.69922c0,-0.1 0.1,-0.39961 0.5,-0.59961c0.9,-0.3 1.49922,-1.1 1.69922,-2c0.2,-0.9 -0.09883,-1.9 -0.79883,-2.5l-1.09961,-1.09961c-0.2,-0.2 -0.45117,-0.30078 -0.70117,-0.30078zM38,27c-0.25,0 -0.49922,0.10078 -0.69922,0.30078c-0.4,0.4 -0.4,0.99844 0,1.39844l1.09961,1.10156c0.3,0.3 0.19922,0.59922 0.19922,0.69922c0,0.1 -0.1,0.39961 -0.5,0.59961c-0.9,0.3 -1.49922,1.1 -1.69922,2c-0.2,0.9 0.09883,1.9 0.79883,2.5l1.10156,1.09961c0.2,0.2 0.49922,0.30078 0.69922,0.30078c0.2,0 0.49922,-0.10078 0.69922,-0.30078c0.4,-0.4 0.4,-0.99844 0,-1.39844l-1.09961,-1.10156c-0.3,-0.3 -0.19922,-0.59922 -0.19922,-0.69922c0,-0.1 0.1,-0.39961 0.5,-0.59961c0.9,-0.3 1.49922,-1.1 1.69922,-2c0.2,-0.9 -0.09883,-1.9 -0.79883,-2.5l-1.10156,-1.09961c-0.2,-0.2 -0.44922,-0.30078 -0.69922,-0.30078zM23,29c-0.6,0 -1,0.4 -1,1v16c0,0.6 0.4,1 1,1c0.6,0 1,-0.4 1,-1v-16c0,-0.6 -0.4,-1 -1,-1zM48.09961,33c-0.9,0 -1.79883,0.49922 -2.29883,1.19922c-0.8,1 -0.8,2.5 0,3.5l2.79883,4c0.2,0.3 0.50078,0.40039 0.80078,0.40039c0.2,0 0.3,0.00039 0.5,-0.09961l4.5,-2.30078c1.3,-0.7 1.9,-2.09961 1.5,-3.59961c-0.3,-0.9 -0.90117,-1.60039 -1.70117,-1.90039c-0.8,-0.4 -1.79961,-0.29844 -2.59961,0.10156l-0.59961,0.39844l-0.5,-0.59961c-0.6,-0.7 -1.40039,-1.09961 -2.40039,-1.09961zM48.19922,35c0.3,0 0.60078,0.10039 0.80078,0.40039l1,1.19922c0.3,0.4 0.79922,0.50117 1.19922,0.20117l1.30078,-0.70117c0.3,-0.1 0.60039,-0.2 0.90039,0c0.3,0.1 0.49961,0.40117 0.59961,0.70117c0.1,0.5 -0.1,0.99922 -0.5,1.19922l-3.69922,1.90039l-2.30078,-3.30078c-0.3,-0.4 -0.29961,-0.79922 -0.09961,-1.19922c0.2,-0.2 0.49883,-0.40039 0.79883,-0.40039zM36,45h18v3c0,3.4 -1.90039,6.5 -4.90039,8h-8.19922c-3,-1.5 -4.90039,-4.6 -4.90039,-8zM56,46.19922c1.2,0.4 2,1.50078 2,2.80078c0,1.6 -1.20078,2.9 -2.80078,3c0.5,-1.2 0.80078,-2.6 0.80078,-4zM23,50c-0.6,0 -1,0.4 -1,1v3c0,0.6 0.4,1 1,1c0.6,0 1,-0.4 1,-1v-3c0,-0.6 -0.4,-1 -1,-1zM32.59961,58h24.80078l-1,2h-22.80078z"></path></g></g></svg>