<svg xmlns="http://www.w3.org/2000/svg" xmlns:xlink="http://www.w3.org/1999/xlink" viewBox="0,0,255.98959,255.98959" width="50px" height="50px"><g fill="#aa8453" fill-rule="nonzero" stroke="none" stroke-width="1" stroke-linecap="butt" stroke-linejoin="miter" stroke-miterlimit="10" stroke-dasharray="" stroke-dashoffset="0" font-family="none" font-weight="none" font-size="none" text-anchor="none" style="mix-blend-mode: normal"><g transform="scale(5.12,5.12)"><path d="M18,2c-2.75,0 -5,2.25 -5,5v24c-0.00391,0.35938 0.18359,0.69531 0.49609,0.87891c0.3125,0.17969 0.69531,0.17969 1.00781,0c0.3125,-0.18359 0.5,-0.51953 0.49609,-0.87891v-24c0,-1.66797 1.33203,-3 3,-3h1c0.35938,0.00391 0.69531,-0.18359 0.87891,-0.49609c0.17969,-0.3125 0.17969,-0.69531 0,-1.00781c-0.18359,-0.3125 -0.51953,-0.5 -0.87891,-0.49609zM40,2c-2.75,0 -5,2.25 -5,5v1h-19v2h19v4h-19v2h19v4h-19v2h19v4h-19v2h19v3c-0.00391,0.35938 0.18359,0.69531 0.49609,0.87891c0.3125,0.17969 0.69531,0.17969 1.00781,0c0.3125,-0.18359 0.5,-0.51953 0.49609,-0.87891v-24c0,-1.66797 1.33203,-3 3,-3h1c0.35938,0.00391 0.69531,-0.18359 0.87891,-0.49609c0.17969,-0.3125 0.17969,-0.69531 0,-1.00781c-0.18359,-0.3125 -0.51953,-0.5 -0.87891,-0.49609zM19.49609,31.98438c-0.0625,0.00391 -0.12109,0.00781 -0.17969,0.01953c-0.00781,0.00391 -0.01562,0.00391 -0.01953,0.00781c-0.23047,0.04297 -0.43359,0.16797 -0.57812,0.34766c-0.19922,0.1875 -1.80469,1.64063 -4.71875,1.64063c-2.91797,0 -4.51953,-1.45703 -4.71875,-1.64062c-0.19141,-0.24219 -0.48828,-0.375 -0.79687,-0.37109c-0.00781,0.00391 -0.01562,0.00391 -0.01953,0.00391c-0.28906,0.00781 -0.5625,0.14063 -0.74609,0.36719c-0.19922,0.1875 -1.80469,1.64063 -4.71875,1.64063c-0.35937,-0.00391 -0.69531,0.18359 -0.87891,0.49609c-0.17969,0.3125 -0.17969,0.69531 0,1.00781c0.18359,0.3125 0.51953,0.5 0.87891,0.49609c2.64453,0 4.54297,-1.05859 5.5,-1.73437c0.95703,0.67578 2.85547,1.73438 5.5,1.73438c2.64453,0 4.54297,-1.05859 5.5,-1.73437c0.95703,0.67578 2.85547,1.73438 5.5,1.73438c2.64453,0 4.54297,-1.05859 5.5,-1.73437c0.95703,0.67578 2.85547,1.73438 5.5,1.73438c2.64453,0 4.54297,-1.05859 5.5,-1.73437c0.95703,0.67578 2.85547,1.73438 5.5,1.73438c0.35938,0.00391 0.69531,-0.18359 0.87891,-0.49609c0.17969,-0.3125 0.17969,-0.69531 0,-1.00781c-0.18359,-0.3125 -0.51953,-0.5 -0.87891,-0.49609c-2.85547,0 -4.4375,-1.38281 -4.69141,-1.62109c-0.23047,-0.30469 -0.61719,-0.44922 -0.99219,-0.375c-0.23437,0.04297 -0.44922,0.16797 -0.59766,0.35547c-0.19922,0.1875 -1.80469,1.64063 -4.71875,1.64063c-2.85547,0 -4.4375,-1.38281 -4.69141,-1.62109c-0.23047,-0.30469 -0.61719,-0.44922 -0.99219,-0.375c-0.00781,0.00391 -0.01562,0.00391 -0.01953,0.00781c-0.23047,0.04297 -0.43359,0.16797 -0.57812,0.34766c-0.19922,0.1875 -1.80469,1.64063 -4.71875,1.64063c-2.85547,0 -4.4375,-1.38281 -4.69141,-1.62109c-0.19531,-0.25391 -0.49609,-0.39844 -0.8125,-0.39453zM19.49609,37.98438c-0.0625,0.00391 -0.12109,0.00781 -0.17969,0.01953c-0.00781,0.00391 -0.01562,0.00391 -0.01953,0.00781c-0.23047,0.04297 -0.43359,0.16797 -0.57812,0.34766c-0.19922,0.1875 -1.80469,1.64063 -4.71875,1.64063c-2.91797,0 -4.51953,-1.45703 -4.71875,-1.64062c-0.19141,-0.24219 -0.48828,-0.375 -0.79687,-0.37109c-0.00781,0.00391 -0.01562,0.00391 -0.01953,0.00391c-0.28906,0.00781 -0.5625,0.14063 -0.74609,0.36719c-0.19922,0.1875 -1.80469,1.64063 -4.71875,1.64063c-0.35937,-0.00391 -0.69531,0.18359 -0.87891,0.49609c-0.17969,0.3125 -0.17969,0.69531 0,1.00781c0.18359,0.3125 0.51953,0.5 0.87891,0.49609c2.64453,0 4.54297,-1.05859 5.5,-1.73437c0.95703,0.67578 2.85547,1.73438 5.5,1.73438c2.64453,0 4.54297,-1.05859 5.5,-1.73437c0.95703,0.67578 2.85547,1.73438 5.5,1.73438c2.64453,0 4.54297,-1.05859 5.5,-1.73437c0.95703,0.67578 2.85547,1.73438 5.5,1.73438c2.64453,0 4.54297,-1.05859 5.5,-1.73437c0.95703,0.67578 2.85547,1.73438 5.5,1.73438c0.35938,0.00391 0.69531,-0.18359 0.87891,-0.49609c0.17969,-0.3125 0.17969,-0.69531 0,-1.00781c-0.18359,-0.3125 -0.51953,-0.5 -0.87891,-0.49609c-2.85547,0 -4.4375,-1.38281 -4.69141,-1.62109c-0.23047,-0.30469 -0.61719,-0.44922 -0.99219,-0.375c-0.23437,0.04297 -0.44922,0.16797 -0.59766,0.35547c-0.19922,0.1875 -1.80469,1.64063 -4.71875,1.64063c-2.85547,0 -4.4375,-1.38281 -4.69141,-1.62109c-0.23047,-0.30469 -0.61719,-0.44922 -0.99219,-0.375c-0.00781,0.00391 -0.01562,0.00391 -0.01953,0.00781c-0.23047,0.04297 -0.43359,0.16797 -0.57812,0.34766c-0.19922,0.1875 -1.80469,1.64063 -4.71875,1.64063c-2.85547,0 -4.4375,-1.38281 -4.69141,-1.62109c-0.19531,-0.25391 -0.49609,-0.39844 -0.8125,-0.39453zM19.49609,43.98438c-0.0625,0.00391 -0.12109,0.00781 -0.17969,0.01953c-0.00781,0.00391 -0.01562,0.00391 -0.01953,0.00781c-0.23047,0.04297 -0.43359,0.16797 -0.57812,0.34766c-0.19922,0.1875 -1.80469,1.64063 -4.71875,1.64063c-2.91797,0 -4.51953,-1.45703 -4.71875,-1.64062c-0.19141,-0.24219 -0.48828,-0.375 -0.79687,-0.37109c-0.00781,0.00391 -0.01562,0.00391 -0.01953,0.00391c-0.28906,0.00781 -0.5625,0.14063 -0.74609,0.36719c-0.19922,0.1875 -1.80469,1.64063 -4.71875,1.64063c-0.35937,-0.00391 -0.69531,0.18359 -0.87891,0.49609c-0.17969,0.3125 -0.17969,0.69531 0,1.00781c0.18359,0.3125 0.51953,0.5 0.87891,0.49609c2.64453,0 4.54297,-1.05859 5.5,-1.73437c0.95703,0.67578 2.85547,1.73438 5.5,1.73438c2.64453,0 4.54297,-1.05859 5.5,-1.73437c0.95703,0.67578 2.85547,1.73438 5.5,1.73438c2.64453,0 4.54297,-1.05859 5.5,-1.73437c0.95703,0.67578 2.85547,1.73438 5.5,1.73438c2.64453,0 4.54297,-1.05859 5.5,-1.73437c0.95703,0.67578 2.85547,1.73438 5.5,1.73438c0.35938,0.00391 0.69531,-0.18359 0.87891,-0.49609c0.17969,-0.3125 0.17969,-0.69531 0,-1.00781c-0.18359,-0.3125 -0.51953,-0.5 -0.87891,-0.49609c-2.85547,0 -4.4375,-1.38281 -4.69141,-1.62109c-0.23047,-0.30469 -0.61719,-0.44922 -0.99219,-0.375c-0.23437,0.04297 -0.44922,0.16797 -0.59766,0.35547c-0.19922,0.1875 -1.80469,1.64063 -4.71875,1.64063c-2.85547,0 -4.4375,-1.38281 -4.69141,-1.62109c-0.23047,-0.30469 -0.61719,-0.44922 -0.99219,-0.375c-0.00781,0.00391 -0.01562,0.00391 -0.01953,0.00781c-0.23047,0.04297 -0.43359,0.16797 -0.57812,0.34766c-0.19922,0.1875 -1.80469,1.64063 -4.71875,1.64063c-2.85547,0 -4.4375,-1.38281 -4.69141,-1.62109c-0.19531,-0.25391 -0.49609,-0.39844 -0.8125,-0.39453z"></path></g></g></svg>