<svg xmlns="http://www.w3.org/2000/svg" xmlns:xlink="http://www.w3.org/1999/xlink" viewBox="0,0,255.98959,255.98959" width="50px" height="50px"><g fill="#aa8453" fill-rule="nonzero" stroke="none" stroke-width="1" stroke-linecap="butt" stroke-linejoin="miter" stroke-miterlimit="10" stroke-dasharray="" stroke-dashoffset="0" font-family="none" font-weight="none" font-size="none" text-anchor="none" style="mix-blend-mode: normal"><g transform="scale(4,4)"><path d="M32,3.85547c-8.37109,0 -16.74219,0.61328 -25.05859,1.84766l-0.37891,0.05469c-1.46094,0.21875 -2.5625,1.49219 -2.5625,2.96875v14.79297c-2.41016,1.61719 -4,4.36719 -4,7.48047v24c0,1.65234 1.34766,3 3,3h4c1.65234,0 3,-1.34766 3,-3v-4c0,-0.55078 0.44922,-1 1,-1h42c0.55078,0 1,0.44922 1,1v4c0,1.65234 1.34766,3 3,3h4c1.65234,0 3,-1.34766 3,-3v-24c0,-3.11328 -1.58984,-5.86328 -4,-7.48047v-14.79297c0,-1.47656 -1.10156,-2.75 -2.5625,-2.96875l-0.375,-0.05469c-8.31641,-1.23437 -16.6875,-1.84766 -25.0625,-1.84766zM32,5.85547c8.27344,0 16.55078,0.60938 24.76563,1.82422l0.37891,0.05469c0.48828,0.07422 0.85547,0.5 0.85547,0.99219v13.80078c-0.94141,-0.33594 -1.94531,-0.52734 -3,-0.52734h-1v-5.39453c0,-1.41797 -0.96484,-2.62109 -2.34766,-2.92969l-0.92969,-0.20703c-4.39453,-0.97656 -9.04687,-0.97656 -13.44531,0l-0.92969,0.20703c-1.38281,0.30859 -2.34766,1.51172 -2.34766,2.92969v5.39453h-4v-5.39453c0,-1.41797 -0.96484,-2.62109 -2.34766,-2.92969l-0.92969,-0.20703c-4.39453,-0.97656 -9.04687,-0.97656 -13.44531,0l-0.92969,0.20703c-1.38281,0.30859 -2.34766,1.51172 -2.34766,2.92969v5.39453h-1c-1.05469,0 -2.05859,0.19141 -3,0.52734v-13.80078c0,-0.49219 0.36719,-0.91797 0.85156,-0.99219l0.38281,-0.05469c8.21484,-1.21484 16.49219,-1.82422 24.76563,-1.82422zM20,14.73438c2.11719,0 4.23438,0.23047 6.29297,0.6875l0.92578,0.20313c0.46094,0.10547 0.78125,0.50781 0.78125,0.98047v5.39453h-16v-5.39453c0,-0.47266 0.32031,-0.875 0.78125,-0.98047l0.92578,-0.20312c2.05859,-0.45703 4.17578,-0.6875 6.29297,-0.6875zM44,14.73438c2.11719,0 4.23438,0.23047 6.29297,0.6875l0.92578,0.20313c0.46094,0.10547 0.78125,0.50781 0.78125,0.98047v5.39453h-16v-5.39453c0,-0.47266 0.32031,-0.875 0.78125,-0.98047l0.92578,-0.20312c2.05859,-0.45703 4.17578,-0.6875 6.29297,-0.6875zM9,24h46c3.85938,0 7,3.14063 7,7v1h-60v-1c0,-3.85937 3.14063,-7 7,-7zM7,26c-0.55078,0 -1,0.44922 -1,1v2c0,0.55078 0.44922,1 1,1c0.55078,0 1,-0.44922 1,-1v-2c0,-0.55078 -0.44922,-1 -1,-1zM12,26c-0.55078,0 -1,0.44922 -1,1v2c0,0.55078 0.44922,1 1,1c0.55078,0 1,-0.44922 1,-1v-2c0,-0.55078 -0.44922,-1 -1,-1zM17,26c-0.55078,0 -1,0.44922 -1,1v2c0,0.55078 0.44922,1 1,1c0.55078,0 1,-0.44922 1,-1v-2c0,-0.55078 -0.44922,-1 -1,-1zM22,26c-0.55078,0 -1,0.44922 -1,1v2c0,0.55078 0.44922,1 1,1c0.55078,0 1,-0.44922 1,-1v-2c0,-0.55078 -0.44922,-1 -1,-1zM27,26c-0.55078,0 -1,0.44922 -1,1v2c0,0.55078 0.44922,1 1,1c0.55078,0 1,-0.44922 1,-1v-2c0,-0.55078 -0.44922,-1 -1,-1zM32,26c-0.55078,0 -1,0.44922 -1,1v2c0,0.55078 0.44922,1 1,1c0.55078,0 1,-0.44922 1,-1v-2c0,-0.55078 -0.44922,-1 -1,-1zM37,26c-0.55078,0 -1,0.44922 -1,1v2c0,0.55078 0.44922,1 1,1c0.55078,0 1,-0.44922 1,-1v-2c0,-0.55078 -0.44922,-1 -1,-1zM42,26c-0.55078,0 -1,0.44922 -1,1v2c0,0.55078 0.44922,1 1,1c0.55078,0 1,-0.44922 1,-1v-2c0,-0.55078 -0.44922,-1 -1,-1zM47,26c-0.55078,0 -1,0.44922 -1,1v2c0,0.55078 0.44922,1 1,1c0.55078,0 1,-0.44922 1,-1v-2c0,-0.55078 -0.44922,-1 -1,-1zM52,26c-0.55078,0 -1,0.44922 -1,1v2c0,0.55078 0.44922,1 1,1c0.55078,0 1,-0.44922 1,-1v-2c0,-0.55078 -0.44922,-1 -1,-1zM57,26c-0.55078,0 -1,0.44922 -1,1v2c0,0.55078 0.44922,1 1,1c0.55078,0 1,-0.44922 1,-1v-2c0,-0.55078 -0.44922,-1 -1,-1zM2,34h60v21c0,0.55078 -0.44922,1 -1,1h-4c-0.55078,0 -1,-0.44922 -1,-1v-4c0,-1.65234 -1.34766,-3 -3,-3h-42c-1.65234,0 -3,1.34766 -3,3v4c0,0.55078 -0.44922,1 -1,1h-4c-0.55078,0 -1,-0.44922 -1,-1zM5,36c-0.55078,0 -1,0.44922 -1,1c0,0.55078 0.44922,1 1,1h46c0.55078,0 1,-0.44922 1,-1c0,-0.55078 -0.44922,-1 -1,-1zM55,36c-0.55078,0 -1,0.44922 -1,1c0,0.55078 0.44922,1 1,1h4c0.55078,0 1,-0.44922 1,-1c0,-0.55078 -0.44922,-1 -1,-1z"></path></g></g></svg>