<svg xmlns="http://www.w3.org/2000/svg" xmlns:xlink="http://www.w3.org/1999/xlink" viewBox="0,0,255.98959,255.98959" width="50px" height="50px"><g fill="#aa8453" fill-rule="nonzero" stroke="none" stroke-width="1" stroke-linecap="butt" stroke-linejoin="miter" stroke-miterlimit="10" stroke-dasharray="" stroke-dashoffset="0" font-family="none" font-weight="none" font-size="none" text-anchor="none" style="mix-blend-mode: normal"><g transform="scale(5.12,5.12)"><path d="M25,8c-3.54687,0 -5.87109,0.23828 -7.34375,0.5c-1.38672,0.24609 -1.98828,0.53125 -2.0625,0.5625c-0.00391,0.00391 -0.125,0.03125 -0.125,0.03125c-1.48047,0.5 -3.73437,1.1875 -4.78125,3.21875c-0.25391,0.49219 -0.63281,1.49219 -1.1875,2.90625c-0.42578,1.08594 -0.92578,2.45703 -1.4375,3.78125h-2.96875c-1.48437,0 -2.58594,0.49609 -3.25,1.25c-0.66406,0.75391 -0.84375,1.64844 -0.84375,2.34375c0,0.77734 0.40625,1.55469 1.03125,1.9375c0.625,0.38281 1.32422,0.46875 2.0625,0.46875h1.65625c-0.15625,0.41797 -0.6875,1.8125 -0.6875,1.8125l-0.0625,0.1875v12c0,1.64453 1.35547,3 3,3h4c1.64453,0 3,-1.35547 3,-3v-1h20v1c0,1.64453 1.35547,3 3,3h4c1.64453,0 3,-1.35547 3,-3v-12l-0.0625,-0.1875c0,0 -0.52344,-1.39062 -0.6875,-1.8125h1.65625c0.73828,0 1.4375,-0.08594 2.0625,-0.46875c0.625,-0.38281 1.03125,-1.16016 1.03125,-1.9375c0,-0.69531 -0.17969,-1.58984 -0.84375,-2.34375c-0.66406,-0.75391 -1.76562,-1.25 -3.25,-1.25h-2.96875c-0.0625,-0.14844 -0.125,-0.29297 -0.15625,-0.375c-1.08203,-2.79687 -2.125,-5.46094 -2.5,-6.3125c-0.95703,-2.17578 -3.41797,-2.84375 -4.75,-3.21875c-0.04297,-0.01172 -0.11719,-0.05078 -0.15625,-0.0625v0.03125c-0.09375,-0.03906 -0.66406,-0.31641 -2.03125,-0.5625c-1.47266,-0.26172 -3.79687,-0.5 -7.34375,-0.5zM25,10c3.45313,0 5.67188,0.26172 7,0.5c1.32813,0.23828 1.65625,0.40625 1.65625,0.40625l0.09375,0.03125l0.0625,0.03125c1.21875,0.34766 3.18359,1.14844 3.625,2.15625c0.28906,0.65625 1.42578,3.58203 2.46875,6.25c0.25,0.63672 0.66797,1.67578 0.53125,2.3125c-0.07031,0.32031 -0.19141,0.55078 -0.65625,0.8125c-0.46484,0.26172 -1.33984,0.5 -2.78125,0.5h-24c-1.44141,0 -2.31641,-0.23828 -2.78125,-0.5c-0.46484,-0.26172 -0.58594,-0.49219 -0.65625,-0.8125c-0.13672,-0.63672 0.28125,-1.67578 0.53125,-2.3125l-0.0625,-0.03125c0.45703,-1.19141 0.92578,-2.42578 1.3125,-3.40625c0.55078,-1.40234 1.04297,-2.52734 1.125,-2.6875c0.55469,-1.07812 2.28516,-1.8125 3.75,-2.3125h0.0625l0.0625,-0.03125c0,0 0.32813,-0.16797 1.65625,-0.40625c1.32813,-0.23828 3.54688,-0.5 7,-0.5zM5.09375,21h2.15625c-0.37891,0.99609 -0.44531,1.19141 -0.75,2h-2.40625c-0.55859,0 -0.90625,-0.09766 -1,-0.15625c-0.09375,-0.05859 -0.09375,0.03125 -0.09375,-0.25c0,-0.36328 0.10156,-0.75781 0.34375,-1.03125c0.24219,-0.27344 0.66406,-0.5625 1.75,-0.5625zM42.6875,21h2.21875c1.08594,0 1.50781,0.28906 1.75,0.5625c0.24219,0.27344 0.34375,0.66797 0.34375,1.03125c0,0.28125 0,0.19141 -0.09375,0.25c-0.09375,0.05859 -0.44141,0.15625 -1,0.15625h-2.4375c-0.32031,-0.82031 -0.39062,-0.98828 -0.78125,-2zM8.4375,23.59375c0.23047,0.24219 0.49609,0.47656 0.8125,0.65625c0.90234,0.50781 2.09766,0.75 3.75,0.75h24c1.65234,0 2.84766,-0.24219 3.75,-0.75c0.31641,-0.17969 0.58203,-0.41406 0.8125,-0.65625c0.58594,1.53906 1.40234,3.69531 1.4375,3.78125v7.78125c0,0.46875 -0.39062,0.84375 -0.90625,0.84375h-34.1875c-0.51562,0 -0.90625,-0.375 -0.90625,-0.84375v-7.78125c0.03125,-0.08594 0.86719,-2.25781 1.4375,-3.78125zM11,26c-1.64453,0 -3,1.35547 -3,3c0,0.88672 0.36719,1.67578 0.875,2.21875c0.50781,0.54297 1.12109,0.91016 1.71875,1.25c0.84766,0.48047 1.42578,0.84766 2.09375,1.125c0.66797,0.27734 1.38672,0.40625 2.3125,0.40625c2.19531,0 4,-1.80078 4,-4c0,-2.19922 -1.80469,-4 -4,-4zM35,26c-2.19531,0 -4,1.80078 -4,4c0,2.19922 1.80469,4 4,4c0.92578,0 1.64453,-0.12891 2.3125,-0.40625c0.66797,-0.27734 1.24609,-0.64453 2.09375,-1.125c0.59766,-0.33984 1.21094,-0.70703 1.71875,-1.25c0.50781,-0.54297 0.875,-1.33203 0.875,-2.21875c0,-1.64453 -1.35547,-3 -3,-3zM11,28h4c1.11719,0 2,0.88281 2,2c0,1.11719 -0.88281,2 -2,2c-0.75,0 -1.12109,-0.06641 -1.5625,-0.25c-0.44141,-0.18359 -0.99219,-0.53125 -1.875,-1.03125c-0.5625,-0.31641 -0.97656,-0.61719 -1.21875,-0.875c-0.24219,-0.25781 -0.34375,-0.42578 -0.34375,-0.84375c0,-0.5625 0.4375,-1 1,-1zM35,28h4c0.5625,0 1,0.4375 1,1c0,0.41797 -0.10156,0.58594 -0.34375,0.84375c-0.24219,0.25781 -0.65625,0.55859 -1.21875,0.875c-0.88281,0.5 -1.43359,0.84766 -1.875,1.03125c-0.44141,0.18359 -0.8125,0.25 -1.5625,0.25c-1.11719,0 -2,-0.88281 -2,-2c0,-1.11719 0.88281,-2 2,-2zM7,37.84375c0.28906,0.09375 0.58984,0.15625 0.90625,0.15625h5.09375v1c0,0.5625 -0.4375,1 -1,1h-4c-0.5625,0 -1,-0.4375 -1,-1zM43,37.84375v1.15625c0,0.5625 -0.4375,1 -1,1h-4c-0.5625,0 -1,-0.4375 -1,-1v-1h5.09375c0.31641,0 0.61719,-0.0625 0.90625,-0.15625z"></path></g></g></svg>