<svg xmlns="http://www.w3.org/2000/svg" xmlns:xlink="http://www.w3.org/1999/xlink" viewBox="0,0,255.98959,255.98959" width="50px" height="50px"><g fill="#aa8453" fill-rule="nonzero" stroke="none" stroke-width="1" stroke-linecap="butt" stroke-linejoin="miter" stroke-miterlimit="10" stroke-dasharray="" stroke-dashoffset="0" font-family="none" font-weight="none" font-size="none" text-anchor="none" style="mix-blend-mode: normal"><g transform="scale(2,2)"><path d="M30.69922,3c-1.7,0 -3,1.3 -3,3v12.80078l-9.09961,9.09961c-1.2,1.2 -1.2,3.09922 0,4.19922c0.6,0.6 1.39961,0.90039 2.09961,0.90039c0.7,0 1.50156,-0.30039 2.10156,-0.90039l4.89844,-4.90039v6.5l-1.59961,1.60156c-1.2,1.2 -1.2,3.09922 0,4.19922c0.6,0.6 1.39961,0.90039 2.09961,0.90039c0.7,0 1.50156,-0.30039 2.10156,-0.90039l2.5,-2.5c0.6,-0.6 0.89844,-1.29961 0.89844,-2.09961v-7.80078l4.90039,4.90039c0.6,0.6 1.39961,0.90039 2.09961,0.90039c0.7,0 1.50156,-0.30039 2.10156,-0.90039c1.2,-1.2 1.2,-3.09922 0,-4.19922l-9.10156,-9.10156v-12.69922c0,-1.7 -1.3,-3 -3,-3zM64,6c-6.7,0 -13.29961,1.10039 -19.59961,3.40039c-1.6,0.6 -2.40078,2.29883 -1.80078,3.79883c0.6,1.6 2.30078,2.40078 3.80078,1.80078c5.6,-2 11.49961,-3 17.59961,-3c6.5,0 12.70039,1.20039 18.40039,3.40039l0.19922,7.29883c0,2.7 -1.59961,5.20078 -4.09961,6.30078c-5.5,2.4 -11.00078,1.10039 -13.30078,7.40039c-1.9,4.7 3.10117,17.59961 9.20117,17.59961c7.7,0 11.39922,-15.5 13.69922,-15.5c1.5,0 3.8,4.69922 6.5,8.19922c1.8,2.4 4.59961,3.70117 7.59961,3.70117h5.10156l7.29883,1.69922c0.9,3.8 1.40039,7.80078 1.40039,11.80078c0,11.4 -3.59922,22.1 -10.19922,31c-0.1,0.1 -0.20078,0.20039 -0.30078,0.40039c-2.9,3.8 -6.29922,7.19922 -10.19922,10.19922c-1.3,1 -1.60156,2.89922 -0.60156,4.19922c0.6,0.8 1.50039,1.20117 2.40039,1.20117c0.6,0 1.30078,-0.19961 1.80078,-0.59961c2.6,-2 4.99922,-4.2 7.19922,-6.5c0.6,5.2 -0.39883,9.09922 -2.79883,11.19922c-6.9,5.8 -27.10156,-3.00078 -46.10156,-25.30078c-5.1,-6 -9.09883,-12.39844 -12.29883,-18.39844c1.5,-2.2 4.40039,-4.10156 6.40039,-6.10156c2.9,-2.9 3.79883,-7.4 2.29883,-10c-3.9,-6.9 -12,-5.39883 -15.5,0.20117c-1.5,-4.2 -2.39883,-7.60039 -2.79883,-9.40039c-0.4,-1.6 -2.00156,-2.59922 -3.60156,-2.19922c-1.6,0.4 -2.59922,1.99961 -2.19922,3.59961c0.9,3.7 2.70078,10 5.80078,17.5c3.7,8.8 9.19844,19.19922 17.39844,28.69922c15.6,18.3 33.00156,29.20117 45.10156,29.20117c3.7,0 6.89844,-1.00156 9.39844,-3.10156c4.8,-4 6.20117,-10.99883 4.20117,-20.29883l-0.30078,-1.5c7.1,-9.9 10.90039,-21.60039 10.90039,-33.90039c0,-32 -26,-58 -58,-58zM14.54102,37.21289c-1.17187,-0.05625 -2.3168,0.5625 -2.8418,1.6875c-3.8,7.9 -5.69922,16.29961 -5.69922,25.09961c0,32 26,58 58,58c1.7,0 3,-1.3 3,-3c0,-1.7 -1.3,-3 -3,-3c-10,0 -19.30078,-2.80078 -27.30078,-7.80078c1.6,-0.1 3.20117,-0.59844 4.70117,-1.39844c1.9,-1 3.8,-2.30117 6,-3.70117c0.7,-0.5 1.29883,-0.99961 1.79883,-1.59961c0.8,-0.8 0.80156,-2.1 0.10156,-3c-0.3,-0.4 -0.7,-0.79922 -1,-1.19922c-6.4,-7.4 -11.30039,-15.30117 -14.90039,-22.70117c-0.7,-1.4 -2.5,-1.6 -3.5,-0.5c-2.8,2.8 -8.30078,1.30117 -9.80078,-2.79883c-1.7,-4.6 4.20078,-6.30117 3.30078,-12.20117c-0.2,-1.6 -1.9,-2.39922 -4,-2.69922l-6.90039,0.19922c0.7,-5.2 2.29961,-10.29922 4.59961,-15.19922c0.7,-1.4 0.09961,-3.20039 -1.40039,-3.90039c-0.375,-0.175 -0.76758,-0.26836 -1.1582,-0.28711zM99.38672,66.91602c-2.63379,0.12832 -6.29961,1.4082 -11.28711,4.7832c-3.7,2.7 -10.39883,-2.69922 -13.29883,1.30078c-1.5,2.1 2.09844,6.49922 6.39844,9.69922c3.8,2.9 8.20039,4.90078 10.40039,3.80078c8.3,-3.9 13.70117,-12 13.70117,-15c0,-1.8125 -1.52441,-4.79785 -5.91406,-4.58398z"></path></g></g></svg>