<svg xmlns="http://www.w3.org/2000/svg" xmlns:xlink="http://www.w3.org/1999/xlink" viewBox="0,0,255.98959,255.98959" width="50px" height="50px"><g fill="#aa8453" fill-rule="nonzero" stroke="none" stroke-width="1" stroke-linecap="butt" stroke-linejoin="miter" stroke-miterlimit="10" stroke-dasharray="" stroke-dashoffset="0" font-family="none" font-weight="none" font-size="none" text-anchor="none" style="mix-blend-mode: normal"><g transform="scale(9.84615,9.84615)"><path d="M13,3c-4.58203,0 -8.6875,1.76563 -11.75,4.71875c-0.59375,0.57813 -0.60937,1.53125 -0.03125,2.125c0.57813,0.59375 1.53125,0.60938 2.125,0.03125c2.53906,-2.44531 5.83594,-3.875 9.65625,-3.875c3.82031,0 7.11719,1.42969 9.65625,3.875c0.59375,0.57813 1.54688,0.5625 2.125,-0.03125c0.57813,-0.59375 0.5625,-1.54687 -0.03125,-2.125c-3.0625,-2.95312 -7.16797,-4.71875 -11.75,-4.71875zM13,8c-3.3125,0 -6.30859,1.37109 -8.46875,3.53125c-0.58594,0.58594 -0.58594,1.53906 0,2.125c0.58594,0.58594 1.53906,0.58594 2.125,0c1.64063,-1.64062 3.85938,-2.65625 6.34375,-2.65625c2.48438,0 4.70313,1.01563 6.34375,2.65625c0.58594,0.58594 1.53906,0.58594 2.125,0c0.58594,-0.58594 0.58594,-1.53906 0,-2.125c-2.16016,-2.16016 -5.15625,-3.53125 -8.46875,-3.53125zM13,13c-2.03906,0 -3.92969,0.86328 -5.21875,2.28125c-0.5625,0.61328 -0.51953,1.5625 0.09375,2.125c0.61328,0.5625 1.5625,0.51953 2.125,-0.09375c0.71094,-0.78125 1.83594,-1.3125 3,-1.3125c1.16406,0 2.28906,0.53125 3,1.3125c0.5625,0.61328 1.51172,0.65625 2.125,0.09375c0.61328,-0.5625 0.65625,-1.51172 0.09375,-2.125c-1.28906,-1.41797 -3.17969,-2.28125 -5.21875,-2.28125zM13,18.1875c-0.99219,0 -1.8125,0.82031 -1.8125,1.8125c0,0.99219 0.82031,1.8125 1.8125,1.8125c0.99219,0 1.8125,-0.82031 1.8125,-1.8125c0,-0.99219 -0.82031,-1.8125 -1.8125,-1.8125z"></path></g></g></svg>