<svg xmlns="http://www.w3.org/2000/svg" xmlns:xlink="http://www.w3.org/1999/xlink" viewBox="0,0,255.99828,255.99828" width="50px" height="50px"><g fill="#ffffff" fill-rule="evenodd" stroke="none" stroke-width="1" stroke-linecap="butt" stroke-linejoin="miter" stroke-miterlimit="10" stroke-dasharray="" stroke-dashoffset="0" font-family="none" font-weight="none" font-size="none" text-anchor="none" style="mix-blend-mode: normal"><g transform="scale(5.12,5.12)"><path d="M13,5l3,9v6h2v-6l3,-9h-2l-2,6l-2,-6zM24,9c-1.06641,0 -1.58984,0.16797 -2.24219,0.70313c-0.625,0.52734 -0.79687,0.93359 -0.75781,2.29688v5c0,0.99609 0.16406,1.65234 0.76563,2.23438c0.625,0.58203 1.21484,0.76563 2.23438,0.76563c1.06641,0 1.64844,-0.18359 2.25,-0.76562c0.625,-0.55859 0.75,-1.23828 0.75,-2.23437v-5c0,-0.88281 -0.15625,-1.71875 -0.76172,-2.27734c-0.625,-0.57422 -1.26953,-0.72266 -2.23828,-0.72266zM29,9v9c0,0.97266 0.98047,2 2,2c1.01953,0 1.55859,-0.51172 2,-1v1h2v-11h-2v8c-0.01172,0.68359 -0.81641,1 -1,1c-0.20703,0 -1,-0.04297 -1,-1v-8zM24,11c0.30078,0 1,-0.00391 1,1v5c0,0.96875 -0.67578,1 -1,1c-0.30078,0 -1,-0.01172 -1,-1v-5c0,-0.81641 0.43359,-1 1,-1zM25.45703,21.92188c-5.04297,-0.01172 -10.08203,0 -15.125,0.07813c-0.67969,0.01953 -1.35937,0.11719 -2.00781,0.32813c-0.52344,0.17578 -1.02344,0.41797 -1.47656,0.73438c-0.53516,0.375 -0.99609,0.84766 -1.35547,1.39063c-0.25391,0.37891 -0.45703,0.79297 -0.60937,1.22266c-0.25,0.69141 -0.36328,1.42188 -0.38281,2.15234c-0.05078,3.28125 -0.05078,6.5625 0,9.84375c0.01953,0.625 0.10156,1.24219 0.26563,1.84766c0.31641,1.14063 0.92188,2.20703 1.80469,3.00781c0.25391,0.23047 0.52734,0.4375 0.82031,0.61719c0.35938,0.22266 0.74609,0.40625 1.14844,0.54297c0.57813,0.19531 1.18359,0.29297 1.79297,0.3125c10.10938,0.1875 20.22656,0.15625 30.33594,0c0.67969,-0.01953 1.35938,-0.11719 2.00781,-0.32812c0.52344,-0.17578 1.02344,-0.41797 1.47656,-0.73437c0.53516,-0.375 0.99609,-0.84766 1.35938,-1.39062c0.25,-0.37891 0.45313,-0.79297 0.60938,-1.22266c0.24609,-0.69141 0.35938,-1.42187 0.37891,-2.15234c0.05078,-3.41797 0.01563,-6.83984 0,-10.25391c-0.01172,-0.73828 -0.11719,-1.47656 -0.35937,-2.17187c-0.14453,-0.43359 -0.34375,-0.85156 -0.59375,-1.23437c-0.35156,-0.54687 -0.80859,-1.02734 -1.33594,-1.40625c-0.46875,-0.33984 -0.98828,-0.59766 -1.53516,-0.77734c-0.67578,-0.21875 -1.38281,-0.31641 -2.09375,-0.32812c-5.03906,-0.02344 -10.08203,-0.06641 -15.125,-0.07812zM33.09375,23.9375c2.51172,0.00391 5.02344,0.02344 7.53125,0.0625c0.39844,0.01172 0.79688,0.05859 1.18359,0.15625c0.62109,0.16406 1.20703,0.47266 1.65625,0.93359c0.15234,0.15625 0.28516,0.32422 0.40625,0.50781c0.16797,0.26172 0.30078,0.54688 0.39453,0.84375c0.15625,0.46094 0.21875,0.94531 0.23438,1.43359c0.05078,3.41797 0.05078,6.83594 0,10.25c-0.01562,0.48828 -0.07812,0.97266 -0.23437,1.43359c-0.09375,0.29688 -0.22656,0.58203 -0.39453,0.84375c-0.12109,0.18359 -0.25391,0.35156 -0.40625,0.50781c-0.44922,0.46094 -1.03516,0.76953 -1.65625,0.93359c-0.38672,0.09766 -0.78516,0.14453 -1.18359,0.15625c-10.05859,0.15625 -20.12109,0.0625 -30.18359,0c-0.42969,-0.00781 -0.85156,-0.07031 -1.26172,-0.20703c-0.25781,-0.08984 -0.50781,-0.20703 -0.73828,-0.35156c-0.1875,-0.11328 -0.36719,-0.24609 -0.52734,-0.39453c-0.61719,-0.5625 -1.02344,-1.31641 -1.23437,-2.11328c-0.11328,-0.42578 -0.16406,-0.86719 -0.17969,-1.30859c-0.05078,-3.22656 -0.01562,-6.45703 0,-9.6875c0.00781,-0.49219 0.07031,-0.98047 0.21875,-1.44922c0.09375,-0.30078 0.22266,-0.58594 0.39063,-0.85156c0.12109,-0.19531 0.26563,-0.38281 0.42578,-0.54687c0.46484,-0.47656 1.06641,-0.78516 1.70703,-0.94531c0.41406,-0.10156 0.83984,-0.14062 1.26172,-0.14453c7.53125,0 15.0625,-0.08594 22.58984,-0.0625zM11,26v2h2v12h2v-12h2v-2zM26,26v14h2v-1c0.38672,0.44922 0.94922,1.01172 2,1c0.62109,-0.00781 1.10156,-0.50781 1.42188,-0.90234c0.32813,-0.39453 0.57813,-0.85547 0.57813,-1.59766v-6c0,-0.86328 -0.27344,-1.44922 -0.62109,-1.89062c-0.34766,-0.4375 -0.85547,-0.67187 -1.50391,-0.67187c-0.32812,0 -0.65234,0.09375 -0.97266,0.25781c-0.32812,0.16016 -0.67187,0.44531 -0.90234,0.80469v-4zM18,29v9c0,0.625 0.26953,0.93359 0.5,1.23438c0.25781,0.32813 0.80859,0.76563 1.29297,0.76563c0.39063,0 0.8125,0.01563 1.22656,-0.21875c0.41797,-0.20703 0.60938,-0.34375 0.98047,-0.78125v1h2v-11h-2v8c-0.17969,0.23438 -0.1875,0.99219 -1,1c-0.73047,0.00781 -1,-0.76953 -1,-1v-8zM36.19922,29c-0.94922,0 -1.82812,0.23047 -2.29687,0.71094c-0.58203,0.59766 -0.89844,1.26953 -0.89844,2.17578v4.70703c0,1.01953 0.27734,1.8125 0.80859,2.39063c0.53125,0.57813 1.27344,0.85938 2.22266,0.85938c1.03906,0 1.83203,-0.25781 2.33984,-0.81641c0.53906,-0.53125 0.625,-1.34375 0.625,-2.43359v-0.59375h-2v0.5c0,0.60156 -0.05859,1.06641 -0.19922,1.23047c-0.13672,0.18359 -0.39453,0.26563 -0.80078,0.26953c-0.36719,0.00391 -0.64453,-0.09766 -0.78125,-0.32812c-0.14453,-0.21094 -0.21875,-0.56641 -0.21875,-1.125v-1.54687h4v-3.11328c0,-1 -0.16406,-1.62109 -0.67969,-2.15234c-0.50391,-0.53125 -1.17187,-0.73437 -2.12109,-0.73437zM29,30.5c0.55078,0 1,0.5 1,1.5v5.02344c0,0.55078 -0.44922,0.97656 -1,0.97656c-0.55078,0 -0.99219,-0.21094 -1,-0.5v-6c0.00781,-0.50391 0.44922,-1 1,-1zM36,31c0.55078,0 1,0.38672 1,1v1h-2v-1c0.00781,-0.53516 0.44922,-1 1,-1z"></path></g></g></svg>